<svg width="13" height="26" viewBox="0 0 13 26" fill="none" xmlns="http://www.w3.org/2000/svg">
<path d="M2.157 0.000127792C2.4345 -0.000816345 2.70868 0.0604115 2.9594 0.179312C3.21012 0.29821 3.43101 0.47176 3.60583 0.687206L12.5774 11.829C12.8506 12.1613 13 12.5781 13 13.0082C13 13.4383 12.8506 13.8551 12.5774 14.1874L3.29006 25.3292C2.97477 25.7084 2.52172 25.9469 2.03055 25.9921C1.53938 26.0374 1.05034 25.8858 0.671017 25.5706C0.291689 25.2554 0.0531445 24.8024 0.00785923 24.3114C-0.037425 23.8204 0.114259 23.3315 0.429544 22.9522L8.73247 12.9989L0.708167 3.04555C0.48103 2.77298 0.336745 2.44106 0.29239 2.08908C0.248034 1.73709 0.305462 1.37977 0.457879 1.05939C0.610295 0.73901 0.851322 0.468985 1.15244 0.281263C1.45355 0.0935421 1.80216 -0.00401688 2.157 0.000127792Z" fill="#eee"/>
</svg>
